<svg width="105" height="104" viewBox="0 0 105 104" fill="none" xmlns="http://www.w3.org/2000/svg">
<rect width="105" height="104" rx="6" fill="#1F1F1F"/>
<path d="M34.1038 30.625H70.3997C71.5211 30.625 72.59 31.0552 73.3723 31.8096C74.1532 32.5627 74.5852 33.5762 74.5852 34.625V69.625C74.5852 70.6738 74.1532 71.6873 73.3723 72.4404C72.59 73.1948 71.5211 73.625 70.3997 73.625H34.1038C32.9823 73.625 31.9134 73.1948 31.1311 72.4404C30.3501 71.6873 29.9182 70.6738 29.9182 69.625V34.625C29.9182 33.5762 30.3501 32.5627 31.1311 31.8096C31.9134 31.0552 32.9823 30.625 34.1038 30.625ZM34.3997 69.375H43.5813V46.4502H34.3997V69.375ZM60.6516 45.9746C58.9637 45.9746 57.1103 46.6271 55.637 47.7334V46.4502H46.4036V69.375H55.637V56.0498C55.6371 54.702 56.7714 53.5498 58.2405 53.5498C58.9493 53.5498 59.622 53.822 60.1125 54.2949C60.6019 54.7668 60.8703 55.3988 60.8704 56.0498V69.375H70.1038V55.125C70.1038 52.6865 69.0986 50.3555 67.3225 48.6426C65.5474 46.9309 63.1469 45.9746 60.6516 45.9746ZM38.9778 34.0996C37.562 34.0996 36.1966 34.6416 35.1848 35.6172C34.1718 36.594 33.5959 37.9275 33.5959 39.3252C33.5961 42.2439 36.0569 44.5254 38.9778 44.5254C40.3865 44.5253 41.7444 43.9855 42.7512 43.0146C43.7593 42.0425 44.3332 40.7162 44.3333 39.3252C44.3333 36.4216 41.9143 34.0998 38.9778 34.0996Z" stroke="url(#paint0_linear_2989_9652)" stroke-width="2"/>
<defs>
<linearGradient id="paint0_linear_2989_9652" x1="52.2515" y1="29.625" x2="52.2515" y2="74.625" gradientUnits="userSpaceOnUse">
<stop stop-color="#30E29D"/>
<stop offset="1" stop-color="#0A2E20"/>
</linearGradient>
</defs>
</svg>
