<svg width="105" height="104" viewBox="0 0 105 104" fill="none" xmlns="http://www.w3.org/2000/svg">
<rect width="105" height="104" rx="6" fill="#1F1F1F"/>
<path d="M24.9082 78.4922H79.5957M43.6105 30.518C45.1633 32.0705 47.0247 33.3052 49.0836 34.1485C51.1422 34.9917 53.3562 35.4262 55.5931 35.4258C57.8605 35.4273 60.1044 34.9823 62.1872 34.118M64.4047 53.8828C62.8822 52.2232 61.0114 50.8945 58.9163 49.9844C56.8214 49.0743 54.5498 48.604 52.252 48.604C49.9541 48.604 47.6825 49.0743 45.5875 49.9844C43.4925 50.8945 41.6217 52.2232 40.0992 53.8828M66.6693 78.4918H37.838L34.0901 62.1582C34.0076 61.8041 34.0009 61.4377 34.0702 61.081C34.1396 60.7243 34.2836 60.3852 34.4936 60.084C34.684 59.802 34.9429 59.5693 35.2479 59.4059C35.5529 59.2426 35.8947 59.1535 36.2436 59.1465H68.2637C68.6125 59.1535 68.9542 59.2426 69.2593 59.4059C69.5643 59.5693 69.8232 59.802 70.0137 60.084C70.2235 60.3852 70.3676 60.7243 70.4371 61.081C70.5064 61.4377 70.4996 61.8041 70.4172 62.1582L66.6693 78.4918ZM48.6061 67.9453C48.6061 68.8777 48.9901 69.772 49.6739 70.4313C50.3576 71.0906 51.2851 71.4609 52.252 71.4609C53.2188 71.4609 54.1463 71.0906 54.83 70.4313C55.5138 69.772 55.8978 68.8777 55.8978 67.9453C55.8978 67.013 55.5138 66.1186 54.83 65.4593C54.1463 64.8 53.2188 64.4297 52.252 64.4297C51.2851 64.4297 50.3576 64.8 49.6739 65.4593C48.9901 66.1186 48.6061 67.013 48.6061 67.9453ZM42.2259 35.4258C42.2259 37.9899 43.2822 40.449 45.1625 42.2621C47.0427 44.0752 49.5929 45.0938 52.252 45.0938C54.911 45.0938 57.4611 44.0752 59.3414 42.2621C61.2217 40.449 62.278 37.9899 62.278 35.4258C62.278 32.8617 61.2217 30.4026 59.3414 28.5895C57.4611 26.7764 54.911 25.7578 52.252 25.7578C49.5929 25.7578 47.0427 26.7764 45.1625 28.5895C43.2822 30.4026 42.2259 32.8617 42.2259 35.4258Z" stroke="url(#paint0_linear_2989_9664)" stroke-width="2" stroke-linecap="round" strokeLinejoin="round"/>
<defs>
<linearGradient id="paint0_linear_2989_9664" x1="52.252" y1="25.7578" x2="52.252" y2="78.4922" gradientUnits="userSpaceOnUse">
<stop stop-color="#30E29D"/>
<stop offset="1" stop-color="#0A2E20"/>
</linearGradient>
</defs>
</svg>
