<svg width="105" height="104" viewBox="0 0 105 104" fill="none" xmlns="http://www.w3.org/2000/svg">
<rect width="105" height="104" rx="6" fill="#1F1F1F"/>
<path d="M61.3208 48.7661L63.2261 47.8474C63.7025 47.6179 64.4168 47.8474 64.8932 48.3068L67.5129 53.3592C68.2275 54.5074 69.4179 55.1962 70.6089 55.1962C71.0853 55.1962 71.7996 54.9668 72.2758 54.7371C73.9429 53.8183 74.6575 51.7516 73.9429 50.144L71.3232 45.0917C70.3707 43.2544 68.7036 41.647 66.5601 40.9581C64.4168 40.2691 62.2736 40.4988 60.1301 41.4174L54.8907 43.9435L48.4607 47.1586C47.9843 47.3882 47.5079 47.3882 47.0317 46.9289L43.4594 43.4842C42.0305 42.1063 39.887 42.1063 38.458 43.4842C37.0293 44.8621 37.0293 46.9289 38.458 48.3068L42.0305 51.7516C44.6501 54.2777 48.4607 54.7371 51.5565 53.3592L54.8907 51.7516L57.5104 56.3444L50.604 60.7078C49.1751 61.6263 48.2223 62.7745 47.5079 64.1524L44.4121 72.42C43.6975 74.257 44.4121 76.0943 46.3171 77.0128C46.7934 77.2427 47.2697 77.2427 47.7461 77.2427C49.1751 77.2427 50.3655 76.5536 51.0801 75.1757L54.1762 66.9084C54.1762 66.6787 54.4144 66.449 54.6526 66.449L60.3682 62.7747L60.8446 64.1524C62.0354 67.3675 65.1314 69.4345 68.7036 69.4345C69.4179 69.4345 70.1325 69.4345 70.8469 69.205L76.3244 67.8272C78.2297 67.3678 79.4206 65.5305 78.9443 63.6932C78.4679 61.8562 76.5628 60.708 74.6575 61.1672L69.18 62.5453C68.7036 62.7747 67.989 62.3151 67.7511 61.856L67.2747 60.4781M40.4642 26.7793C36.5183 26.7793 33.3197 29.8637 33.3197 33.6686C33.3197 35.9355 34.4549 37.9467 36.2072 39.2021M40.2272 60.0182L38.7982 60.9367C37.3693 61.8555 36.4167 63.0035 35.7023 64.3814L32.6061 72.6489C31.8918 74.4862 32.6062 76.3232 34.5114 77.242C34.9877 77.4714 35.464 77.4714 35.9403 77.4714C36.6549 77.4714 37.3693 77.242 37.8456 76.7826M31.528 43.4844C30.099 42.1065 27.9557 42.1065 26.5268 43.4844C25.0978 44.8623 25.0978 46.929 26.5268 48.3069L30.099 51.7517C31.528 53.1299 33.6715 54.0484 35.5765 54.0484M51.419 40.5582C55.365 40.5582 58.5636 37.4737 58.5636 33.6686C58.5636 29.8637 55.365 26.7793 51.419 26.7793C47.4732 26.7793 44.2745 29.8637 44.2745 33.6686C44.2745 37.4737 47.4732 40.5582 51.419 40.5582Z" stroke="url(#paint0_linear_2989_9682)" stroke-width="2" stroke-miterlimit="10" stroke-linecap="round" strokeLinejoin="round"/>
<defs>
<linearGradient id="paint0_linear_2989_9682" x1="52.2522" y1="26.7793" x2="52.2522" y2="77.4714" gradientUnits="userSpaceOnUse">
<stop stop-color="#30E29D"/>
<stop offset="1" stop-color="#0A2E20"/>
</linearGradient>
</defs>
</svg>
