<svg width="105" height="104" viewBox="0 0 105 104" fill="none" xmlns="http://www.w3.org/2000/svg">
<rect width="105" height="104" rx="6" fill="#1F1F1F"/>
<path d="M50.429 40.2741H52.252C52.7354 40.2741 53.1991 40.4524 53.5409 40.7699C53.8829 41.0873 54.0749 41.5179 54.0749 41.9668V53.8157M50.429 53.8158H57.7207M34.5502 54.7229L24.9082 65.6645L34.0228 67.3572L37.6686 77.5135L47.3665 63.2225M69.9554 54.7229L79.5974 65.6645L70.4829 67.3572L66.837 77.5135L57.1391 63.2225M53.3984 27.1066L57.8877 30.4581L63.6457 30.1918C64.061 30.1727 64.4708 30.2861 64.8072 30.5131C65.1439 30.7401 65.3864 31.0671 65.4953 31.4399L67.0023 36.606L71.8293 39.5401C72.1774 39.7516 72.437 40.0672 72.5653 40.4347C72.6934 40.8021 72.6825 41.1992 72.5342 41.56L70.4828 46.5637L72.5342 51.5651C72.683 51.926 72.6941 52.3232 72.5658 52.6906C72.4377 53.0583 72.1776 53.3738 71.8293 53.585L67.0023 56.5191L65.4953 61.6875C65.3864 62.0603 65.1439 62.3873 64.8072 62.6142C64.4708 62.8412 64.061 62.9547 63.6457 62.9356L57.8877 62.6692L53.3984 66.0276C53.0737 66.2697 52.67 66.4018 52.2536 66.4018C51.8373 66.4018 51.4333 66.2697 51.1089 66.0276L46.6195 62.6625L40.8616 62.9288C40.4462 62.948 40.0363 62.8344 39.6998 62.6074C39.3634 62.3806 39.1207 62.0535 39.0119 61.6807L37.505 56.5123L32.6779 53.5783C32.3295 53.367 32.0695 53.0515 31.9413 52.6838C31.813 52.3164 31.8242 51.9192 31.973 51.5583L34.0244 46.5637L31.973 41.56C31.8247 41.1992 31.8137 40.8021 31.942 40.4347C32.0702 40.0672 32.3298 39.7516 32.6779 39.5401L37.505 36.606L39.0119 31.4399C39.1207 31.0671 39.3634 30.7401 39.6998 30.5131C40.0363 30.2861 40.4462 30.1727 40.8616 30.1918L46.6195 30.4581L51.1089 27.1066C51.4333 26.8644 51.8373 26.7324 52.2536 26.7324C52.67 26.7324 53.0737 26.8644 53.3984 27.1066Z" stroke="url(#paint0_linear_2989_9670)" stroke-width="2" stroke-linecap="round" strokeLinejoin="round"/>
<defs>
<linearGradient id="paint0_linear_2989_9670" x1="52.2528" y1="26.7324" x2="52.2528" y2="77.5135" gradientUnits="userSpaceOnUse">
<stop stop-color="#30E29D"/>
<stop offset="1" stop-color="#0A2E20"/>
</linearGradient>
</defs>
</svg>
