<svg width="105" height="104" viewBox="0 0 105 104" fill="none" xmlns="http://www.w3.org/2000/svg">
<rect width="105" height="104" rx="6" fill="#1F1F1F"/>
<path d="M44.9596 50.3632V36.3008M37.668 39.8164V36.3008H52.2513V39.8164M61.3659 46.8477H66.8346M61.3659 36.3008H66.8346M37.668 57.3945H66.8346M37.668 67.9414H66.8346M41.3138 50.3633H48.6055M77.7721 74.9725C77.7721 75.9051 77.3881 76.7993 76.7044 77.4586C76.0207 78.1179 75.0932 78.4882 74.1263 78.4882H30.3763C29.4094 78.4882 28.482 78.1179 27.7983 77.4586C27.1146 76.7993 26.7305 75.9051 26.7305 74.9725V29.2695C26.7305 28.8078 26.8248 28.3507 27.008 27.9242C27.1912 27.4976 27.4598 27.1101 27.7983 26.7836C28.482 26.1243 29.4094 25.7539 30.3763 25.7539H66.8346C67.7857 25.7546 68.6991 26.1138 69.3794 26.7547L76.6711 33.5094C77.0196 33.8369 77.2965 34.2283 77.4856 34.6606C77.6747 35.0929 77.7721 35.5574 77.7721 36.0266V74.9725Z" stroke="url(#paint0_linear_2989_9646)" stroke-width="2" stroke-linecap="round" strokeLinejoin="round"/>
<defs>
<linearGradient id="paint0_linear_2989_9646" x1="52.2513" y1="25.7539" x2="52.2513" y2="78.4882" gradientUnits="userSpaceOnUse">
<stop stop-color="#30E29D"/>
<stop offset="1" stop-color="#0A2E20"/>
</linearGradient>
</defs>
</svg>
