<svg width="105" height="104" viewBox="0 0 105 104" fill="none" xmlns="http://www.w3.org/2000/svg">
<rect width="105" height="104" rx="6" fill="#1F1F1F"/>
<path d="M48.3789 33.6152C49.1215 33.6152 49.8456 33.8355 50.4531 34.2441C51.0605 34.6527 51.5226 35.2294 51.7773 35.8965L56.3955 47.9951L56.4365 48.1035L56.5449 48.1416L69.0059 52.582L69.0156 52.5957L69.0918 52.623C69.7879 52.8702 70.387 53.3172 70.8096 53.9014C71.2319 54.4853 71.4579 55.1788 71.458 55.8887C71.458 56.5987 71.232 57.2929 70.8096 57.877C70.387 58.4611 69.7879 58.9081 69.0918 59.1553L56.5449 63.6084L56.4365 63.6465L56.3955 63.7539L51.748 75.8525V75.8535C51.4933 76.5206 51.0312 77.0973 50.4238 77.5059C49.8164 77.9144 49.093 78.1347 48.3506 78.1348C47.608 78.1348 46.8839 77.9145 46.2764 77.5059C45.669 77.0973 45.2069 76.5206 44.9521 75.8535L40.334 63.7549L40.293 63.6475L40.1846 63.6084L27.6387 59.127H27.6377C26.9415 58.8798 26.3425 58.4328 25.9199 57.8486C25.4976 57.2647 25.2716 56.5712 25.2715 55.8613C25.2715 55.1512 25.4975 54.4571 25.9199 53.873C26.3425 53.2889 26.9415 52.8419 27.6377 52.5947L40.1846 48.1416L40.293 48.1035L40.334 47.9961L44.9814 35.8975V35.8965C45.2361 35.2296 45.6976 34.6526 46.3047 34.2441C46.9122 33.8356 47.6364 33.6153 48.3789 33.6152ZM48.1309 37.0713L43.2168 49.9268L43.2158 49.9277C43.132 50.1495 42.9985 50.3515 42.8242 50.5195C42.6497 50.6878 42.4384 50.8185 42.2051 50.9004H42.2041L28.873 55.6396L28.21 55.875L28.873 56.1104L42.2041 60.8496H42.2051C42.4384 60.9315 42.6497 61.0622 42.8242 61.2305C42.9985 61.3985 43.132 61.6005 43.2158 61.8223L43.2168 61.8232L48.1309 74.6787L48.3643 75.29L48.5986 74.6797L53.5225 61.8145C53.6064 61.5947 53.7392 61.3942 53.9121 61.2275C54.0849 61.0609 54.2937 60.9317 54.5244 60.8496L67.8564 56.1104L68.5186 55.875L67.8564 55.6396L54.5156 50.8906H54.5146C54.284 50.8086 54.0751 50.6793 53.9023 50.5127C53.7297 50.3461 53.5967 50.1463 53.5127 49.9268L48.5986 37.0713L48.3643 36.46L48.1309 37.0713ZM75.5869 37.375C76.0392 37.375 76.471 37.5487 76.7881 37.8545C77.1049 38.16 77.2812 38.572 77.2812 39V41.125H79.4756C79.9278 41.125 80.3596 41.2987 80.6768 41.6045C80.9936 41.91 81.1699 42.322 81.1699 42.75C81.1699 43.178 80.9936 43.59 80.6768 43.8955C80.3596 44.2013 79.9278 44.375 79.4756 44.375H77.2812V46.5C77.2812 46.928 77.1049 47.34 76.7881 47.6455C76.471 47.9513 76.0392 48.125 75.5869 48.125C75.1346 48.125 74.7029 47.9513 74.3857 47.6455C74.069 47.34 73.8926 46.928 73.8926 46.5V44.375H71.6982C71.246 44.375 70.8142 44.2013 70.4971 43.8955C70.1802 43.59 70.0039 43.178 70.0039 42.75C70.0039 42.322 70.1802 41.91 70.4971 41.6045C70.8142 41.2987 71.246 41.125 71.6982 41.125H73.8926V39C73.8926 38.572 74.069 38.16 74.3857 37.8545C74.7029 37.5487 75.1346 37.375 75.5869 37.375ZM63.9199 24.25C64.3722 24.25 64.8049 24.4237 65.1221 24.7295C65.4386 25.035 65.6143 25.4472 65.6143 25.875V29.875H69.7539C70.2061 29.8751 70.638 30.0488 70.9551 30.3545C71.2718 30.66 71.4482 31.0721 71.4482 31.5C71.4482 31.9279 71.2718 32.34 70.9551 32.6455C70.638 32.9512 70.2061 33.1249 69.7539 33.125H65.6143V37.125C65.6143 37.5528 65.4386 37.965 65.1221 38.2705C64.8049 38.5763 64.3722 38.75 63.9199 38.75C63.4678 38.7499 63.0358 38.5762 62.7188 38.2705C62.4021 37.965 62.2256 37.5529 62.2256 37.125V33.125H58.0869C57.6346 33.125 57.2029 32.9513 56.8857 32.6455C56.569 32.34 56.3926 31.928 56.3926 31.5C56.3926 31.072 56.569 30.66 56.8857 30.3545C57.2029 30.0487 57.6346 29.875 58.0869 29.875H62.2256V25.875C62.2256 25.4471 62.4021 25.035 62.7188 24.7295C63.0358 24.4238 63.4678 24.2501 63.9199 24.25Z" fill="#30E29D"/>
<path d="M48.3789 33.6152C49.1215 33.6152 49.8456 33.8355 50.4531 34.2441C51.0605 34.6527 51.5226 35.2294 51.7773 35.8965L56.3955 47.9951L56.4365 48.1035L56.5449 48.1416L69.0059 52.582L69.0156 52.5957L69.0918 52.623C69.7879 52.8702 70.387 53.3172 70.8096 53.9014C71.2319 54.4853 71.4579 55.1788 71.458 55.8887C71.458 56.5987 71.232 57.2929 70.8096 57.877C70.387 58.4611 69.7879 58.9081 69.0918 59.1553L56.5449 63.6084L56.4365 63.6465L56.3955 63.7539L51.748 75.8525V75.8535C51.4933 76.5206 51.0312 77.0973 50.4238 77.5059C49.8164 77.9144 49.093 78.1347 48.3506 78.1348C47.608 78.1348 46.8839 77.9145 46.2764 77.5059C45.669 77.0973 45.2069 76.5206 44.9521 75.8535L40.334 63.7549L40.293 63.6475L40.1846 63.6084L27.6387 59.127H27.6377C26.9415 58.8798 26.3425 58.4328 25.9199 57.8486C25.4976 57.2647 25.2716 56.5712 25.2715 55.8613C25.2715 55.1512 25.4975 54.4571 25.9199 53.873C26.3425 53.2889 26.9415 52.8419 27.6377 52.5947L40.1846 48.1416L40.293 48.1035L40.334 47.9961L44.9814 35.8975V35.8965C45.2361 35.2296 45.6976 34.6526 46.3047 34.2441C46.9122 33.8356 47.6364 33.6153 48.3789 33.6152ZM48.1309 37.0713L43.2168 49.9268L43.2158 49.9277C43.132 50.1495 42.9985 50.3515 42.8242 50.5195C42.6497 50.6878 42.4384 50.8185 42.2051 50.9004H42.2041L28.873 55.6396L28.21 55.875L28.873 56.1104L42.2041 60.8496H42.2051C42.4384 60.9315 42.6497 61.0622 42.8242 61.2305C42.9985 61.3985 43.132 61.6005 43.2158 61.8223L43.2168 61.8232L48.1309 74.6787L48.3643 75.29L48.5986 74.6797L53.5225 61.8145C53.6064 61.5947 53.7392 61.3942 53.9121 61.2275C54.0849 61.0609 54.2937 60.9317 54.5244 60.8496L67.8564 56.1104L68.5186 55.875L67.8564 55.6396L54.5156 50.8906H54.5146C54.284 50.8086 54.0751 50.6793 53.9023 50.5127C53.7297 50.3461 53.5967 50.1463 53.5127 49.9268L48.5986 37.0713L48.3643 36.46L48.1309 37.0713ZM75.5869 37.375C76.0392 37.375 76.471 37.5487 76.7881 37.8545C77.1049 38.16 77.2812 38.572 77.2812 39V41.125H79.4756C79.9278 41.125 80.3596 41.2987 80.6768 41.6045C80.9936 41.91 81.1699 42.322 81.1699 42.75C81.1699 43.178 80.9936 43.59 80.6768 43.8955C80.3596 44.2013 79.9278 44.375 79.4756 44.375H77.2812V46.5C77.2812 46.928 77.1049 47.34 76.7881 47.6455C76.471 47.9513 76.0392 48.125 75.5869 48.125C75.1346 48.125 74.7029 47.9513 74.3857 47.6455C74.069 47.34 73.8926 46.928 73.8926 46.5V44.375H71.6982C71.246 44.375 70.8142 44.2013 70.4971 43.8955C70.1802 43.59 70.0039 43.178 70.0039 42.75C70.0039 42.322 70.1802 41.91 70.4971 41.6045C70.8142 41.2987 71.246 41.125 71.6982 41.125H73.8926V39C73.8926 38.572 74.069 38.16 74.3857 37.8545C74.7029 37.5487 75.1346 37.375 75.5869 37.375ZM63.9199 24.25C64.3722 24.25 64.8049 24.4237 65.1221 24.7295C65.4386 25.035 65.6143 25.4472 65.6143 25.875V29.875H69.7539C70.2061 29.8751 70.638 30.0488 70.9551 30.3545C71.2718 30.66 71.4482 31.0721 71.4482 31.5C71.4482 31.9279 71.2718 32.34 70.9551 32.6455C70.638 32.9512 70.2061 33.1249 69.7539 33.125H65.6143V37.125C65.6143 37.5528 65.4386 37.965 65.1221 38.2705C64.8049 38.5763 64.3722 38.75 63.9199 38.75C63.4678 38.7499 63.0358 38.5762 62.7188 38.2705C62.4021 37.965 62.2256 37.5529 62.2256 37.125V33.125H58.0869C57.6346 33.125 57.2029 32.9513 56.8857 32.6455C56.569 32.34 56.3926 31.928 56.3926 31.5C56.3926 31.072 56.569 30.66 56.8857 30.3545C57.2029 30.0487 57.6346 29.875 58.0869 29.875H62.2256V25.875C62.2256 25.4471 62.4021 25.035 62.7188 24.7295C63.0358 24.4238 63.4678 24.2501 63.9199 24.25Z" fill="url(#paint0_linear_2989_9676)"/>
<path d="M48.3789 33.6152C49.1215 33.6152 49.8456 33.8355 50.4531 34.2441C51.0605 34.6527 51.5226 35.2294 51.7773 35.8965L56.3955 47.9951L56.4365 48.1035L56.5449 48.1416L69.0059 52.582L69.0156 52.5957L69.0918 52.623C69.7879 52.8702 70.387 53.3172 70.8096 53.9014C71.2319 54.4853 71.4579 55.1788 71.458 55.8887C71.458 56.5987 71.232 57.2929 70.8096 57.877C70.387 58.4611 69.7879 58.9081 69.0918 59.1553L56.5449 63.6084L56.4365 63.6465L56.3955 63.7539L51.748 75.8525V75.8535C51.4933 76.5206 51.0312 77.0973 50.4238 77.5059C49.8164 77.9144 49.093 78.1347 48.3506 78.1348C47.608 78.1348 46.8839 77.9145 46.2764 77.5059C45.669 77.0973 45.2069 76.5206 44.9521 75.8535L40.334 63.7549L40.293 63.6475L40.1846 63.6084L27.6387 59.127H27.6377C26.9415 58.8798 26.3425 58.4328 25.9199 57.8486C25.4976 57.2647 25.2716 56.5712 25.2715 55.8613C25.2715 55.1512 25.4975 54.4571 25.9199 53.873C26.3425 53.2889 26.9415 52.8419 27.6377 52.5947L40.1846 48.1416L40.293 48.1035L40.334 47.9961L44.9814 35.8975V35.8965C45.2361 35.2296 45.6976 34.6526 46.3047 34.2441C46.9122 33.8356 47.6364 33.6153 48.3789 33.6152ZM48.1309 37.0713L43.2168 49.9268L43.2158 49.9277C43.132 50.1495 42.9985 50.3515 42.8242 50.5195C42.6497 50.6878 42.4384 50.8185 42.2051 50.9004H42.2041L28.873 55.6396L28.21 55.875L28.873 56.1104L42.2041 60.8496H42.2051C42.4384 60.9315 42.6497 61.0622 42.8242 61.2305C42.9985 61.3985 43.132 61.6005 43.2158 61.8223L43.2168 61.8232L48.1309 74.6787L48.3643 75.29L48.5986 74.6797L53.5225 61.8145C53.6064 61.5947 53.7392 61.3942 53.9121 61.2275C54.0849 61.0609 54.2937 60.9317 54.5244 60.8496L67.8564 56.1104L68.5186 55.875L67.8564 55.6396L54.5156 50.8906H54.5146C54.284 50.8086 54.0751 50.6793 53.9023 50.5127C53.7297 50.3461 53.5967 50.1463 53.5127 49.9268L48.5986 37.0713L48.3643 36.46L48.1309 37.0713ZM75.5869 37.375C76.0392 37.375 76.471 37.5487 76.7881 37.8545C77.1049 38.16 77.2812 38.572 77.2812 39V41.125H79.4756C79.9278 41.125 80.3596 41.2987 80.6768 41.6045C80.9936 41.91 81.1699 42.322 81.1699 42.75C81.1699 43.178 80.9936 43.59 80.6768 43.8955C80.3596 44.2013 79.9278 44.375 79.4756 44.375H77.2812V46.5C77.2812 46.928 77.1049 47.34 76.7881 47.6455C76.471 47.9513 76.0392 48.125 75.5869 48.125C75.1346 48.125 74.7029 47.9513 74.3857 47.6455C74.069 47.34 73.8926 46.928 73.8926 46.5V44.375H71.6982C71.246 44.375 70.8142 44.2013 70.4971 43.8955C70.1802 43.59 70.0039 43.178 70.0039 42.75C70.0039 42.322 70.1802 41.91 70.4971 41.6045C70.8142 41.2987 71.246 41.125 71.6982 41.125H73.8926V39C73.8926 38.572 74.069 38.16 74.3857 37.8545C74.7029 37.5487 75.1346 37.375 75.5869 37.375ZM63.9199 24.25C64.3722 24.25 64.8049 24.4237 65.1221 24.7295C65.4386 25.035 65.6143 25.4472 65.6143 25.875V29.875H69.7539C70.2061 29.8751 70.638 30.0488 70.9551 30.3545C71.2718 30.66 71.4482 31.0721 71.4482 31.5C71.4482 31.9279 71.2718 32.34 70.9551 32.6455C70.638 32.9512 70.2061 33.1249 69.7539 33.125H65.6143V37.125C65.6143 37.5528 65.4386 37.965 65.1221 38.2705C64.8049 38.5763 64.3722 38.75 63.9199 38.75C63.4678 38.7499 63.0358 38.5762 62.7188 38.2705C62.4021 37.965 62.2256 37.5529 62.2256 37.125V33.125H58.0869C57.6346 33.125 57.2029 32.9513 56.8857 32.6455C56.569 32.34 56.3926 31.928 56.3926 31.5C56.3926 31.072 56.569 30.66 56.8857 30.3545C57.2029 30.0487 57.6346 29.875 58.0869 29.875H62.2256V25.875C62.2256 25.4471 62.4021 25.035 62.7188 24.7295C63.0358 24.4238 63.4678 24.2501 63.9199 24.25Z" stroke="#1F1F1F" stroke-width="0.5"/>
<defs>
<linearGradient id="paint0_linear_2989_9676" x1="53.2209" y1="24" x2="53.2209" y2="78.3845" gradientUnits="userSpaceOnUse">
<stop stop-color="#30E29D"/>
<stop offset="1" stop-color="#0A2E20"/>
</linearGradient>
</defs>
</svg>
