<svg width="105" height="104" viewBox="0 0 105 104" fill="none" xmlns="http://www.w3.org/2000/svg">
<rect width="105" height="104" rx="6" fill="#1F1F1F"/>
<path d="M35.8457 30.1178H28.554C27.5871 30.1178 26.6598 30.4745 25.976 31.1094C25.2923 31.7443 24.9082 32.6054 24.9082 33.5033V74.1282C24.9082 75.026 25.2923 75.8873 25.976 76.5221C26.6598 77.157 27.5871 77.5136 28.554 77.5136H75.9499C76.9167 77.5136 77.8442 77.157 78.528 76.5221C79.2117 75.8873 79.5957 75.026 79.5957 74.1282V33.5033C79.5957 32.6054 79.2117 31.7443 78.528 31.1094C77.8442 30.4745 76.9167 30.1178 75.9499 30.1178H50.429M35.8457 67.3574H61.3665M35.8457 57.2012H68.6582M68.6582 47.0449H57.7207M50.429 50.4303L43.1374 45.3545L35.8457 50.4325V28.4274C35.8454 28.2049 35.8923 27.9845 35.9838 27.7789C36.0752 27.5733 36.2095 27.3864 36.3788 27.229C36.5481 27.0716 36.7491 26.9467 36.9705 26.8615C37.1918 26.7763 37.429 26.7324 37.6686 26.7324H48.6061C49.0896 26.7324 49.5533 26.9108 49.895 27.2282C50.237 27.5457 50.429 27.9762 50.429 28.4251V50.4303Z" stroke="url(#paint0_linear_2989_9658)" stroke-width="2" stroke-linecap="round" strokeLinejoin="round"/>
<defs>
<linearGradient id="paint0_linear_2989_9658" x1="52.252" y1="26.7324" x2="52.252" y2="77.5136" gradientUnits="userSpaceOnUse">
<stop stop-color="#30E29D"/>
<stop offset="1" stop-color="#0A2E20"/>
</linearGradient>
</defs>
</svg>
