<svg width="75" height="20" viewBox="0 0 75 20" fill="none" xmlns="http://www.w3.org/2000/svg">
<g clip-path="url(#clip0_2658_6498)">
<path d="M50.8627 15.7112V12.0816C50.8627 11.1867 50.525 10.7392 49.6871 10.7392C49.3495 10.7392 48.9618 10.7889 48.7367 10.8511V16.1587C48.7367 16.3203 48.5741 16.4943 48.399 16.4943H47.1109C46.9483 16.4943 46.7732 16.3327 46.7732 16.1587V9.95611C46.7732 9.73236 46.9358 9.57077 47.1109 9.50862C47.9488 9.23516 48.7992 9.06114 49.6996 9.06114C51.7256 9.06114 52.8512 10.1177 52.8512 12.0816V16.2084C52.8512 16.37 52.6886 16.544 52.5135 16.544H51.7256C51.2004 16.544 50.8627 16.1587 50.8627 15.7112ZM55.9152 13.536L55.8652 14.0332C55.8652 14.7044 56.3154 15.0897 57.0408 15.0897C57.6035 15.0897 58.1038 14.9281 58.6666 14.6422C58.7166 14.6422 58.7791 14.5925 58.8291 14.5925C58.9417 14.5925 58.9917 14.6422 59.0542 14.7044C59.1043 14.7541 59.2168 14.9281 59.2168 14.9281C59.3294 15.0897 59.4419 15.3135 59.4419 15.4875C59.4419 15.761 59.2794 16.0468 59.0542 16.1587C58.4414 16.4943 57.7036 16.6559 56.9157 16.6559C56.0152 16.6559 55.2899 16.4322 54.7271 15.9847C54.1643 15.4875 53.8267 14.8163 53.8267 13.971V11.7958C53.8267 10.068 54.9522 8.99899 56.8657 8.99899C58.7166 8.99899 59.7921 10.0058 59.7921 11.7958V13.1382C59.7921 13.2998 59.6295 13.4738 59.4544 13.4738H55.9152V13.536ZM55.8652 12.3054H58.0037V11.746C58.0037 11.0748 57.616 10.6273 56.9407 10.6273C56.2654 10.6273 55.8777 11.0127 55.8777 11.746C55.8652 11.746 55.8652 12.3054 55.8652 12.3054ZM70.1847 13.536L70.1347 14.0332C70.1347 14.7044 70.5849 15.0897 71.3103 15.0897C71.8731 15.0897 72.3733 14.9281 72.9361 14.6422C72.9861 14.6422 73.0487 14.5925 73.0987 14.5925C73.2112 14.5925 73.2613 14.6422 73.3238 14.7044C73.3738 14.7541 73.4864 14.9281 73.4864 14.9281C73.5989 15.0897 73.7115 15.3135 73.7115 15.4875C73.7115 15.761 73.5489 16.0468 73.3238 16.1587C72.711 16.4943 71.9731 16.6559 71.1852 16.6559C70.2848 16.6559 69.5594 16.4322 68.9967 15.9847C68.4339 15.4875 68.0962 14.8163 68.0962 13.971V11.7958C68.0962 10.068 69.2218 8.99899 71.1352 8.99899C72.9861 8.99899 74.0617 10.0058 74.0617 11.7958V13.1382C74.0617 13.2998 73.8991 13.4738 73.724 13.4738H70.1847V13.536ZM70.1347 12.3054H72.2733V11.746C72.2733 11.0748 71.8856 10.6273 71.2103 10.6273C70.5349 10.6273 70.1472 11.0127 70.1472 11.746V12.3054H70.1347ZM37.0934 16.544H37.8813C38.0439 16.544 38.219 16.3825 38.219 16.2084V12.0816C38.219 10.1798 37.206 9.06114 35.5176 9.06114C35.0174 9.06114 34.4546 9.17301 34.1169 9.28488V7.22149C34.1169 6.774 33.7292 6.38867 33.279 6.38867H32.4911C32.3286 6.38867 32.1535 6.55026 32.1535 6.72428V16.2209C32.1535 16.3825 32.316 16.5565 32.4911 16.5565H33.7793C33.9418 16.5565 34.1169 16.3949 34.1169 16.2209V10.9629C34.3921 10.8511 34.7923 10.8014 35.0674 10.8014C35.9053 10.8014 36.243 11.1867 36.243 12.1438V15.7734C36.3055 16.1587 36.6432 16.544 37.0934 16.544ZM45.5726 11.8579V13.9213C45.5726 15.6491 44.397 16.7181 42.421 16.7181C40.5076 16.7181 39.2695 15.6615 39.2695 13.9213V11.8579C39.2695 10.1301 40.4451 9.06114 42.421 9.06114C44.397 9.06114 45.5726 10.1301 45.5726 11.8579ZM43.6091 11.8579C43.6091 11.1867 43.2214 10.7392 42.4836 10.7392C41.7457 10.7392 41.358 11.1245 41.358 11.8579V13.9213C41.358 14.5925 41.7457 14.9779 42.4836 14.9779C43.2214 14.9779 43.6091 14.5925 43.6091 13.9213V11.8579ZM31.0779 10.9132C31.0779 12.6907 29.7273 13.9213 27.9389 13.9213C27.4887 13.9213 27.101 13.8716 26.7008 13.6976V16.2084C26.7008 16.37 26.5382 16.544 26.3631 16.544H25.075C24.9124 16.544 24.7373 16.3825 24.7373 16.2084V7.33336C24.7373 7.10962 24.8999 6.94803 25.075 6.88587C25.9129 6.61241 26.7633 6.43839 27.6637 6.43839C29.6898 6.43839 31.0904 7.66897 31.0904 9.57077C31.0779 9.57077 31.0779 10.9132 31.0779 10.9132ZM29.0644 9.4589C29.0644 8.56394 28.4516 8.11645 27.6012 8.11645C27.101 8.11645 26.7633 8.27804 26.7633 8.27804V11.9698C27.101 12.1314 27.2636 12.1935 27.6637 12.1935C28.5017 12.1935 29.127 11.6963 29.127 10.8511V9.4589H29.0644ZM67.3834 10.9132C67.3834 12.7032 66.0327 13.9337 64.2318 13.9337C63.7816 13.9337 63.3939 13.884 62.9937 13.71V16.2209C62.9937 16.3825 62.8311 16.5565 62.656 16.5565H61.3679C61.2053 16.5565 61.0302 16.3949 61.0302 16.2209V7.33336C61.0302 7.10962 61.1928 6.94803 61.3679 6.88587C62.2058 6.61241 63.0562 6.43839 63.9567 6.43839C65.9827 6.43839 67.3834 7.66897 67.3834 9.57077V10.9132ZM65.3574 9.4589C65.3574 8.56394 64.7446 8.11645 63.8941 8.11645C63.3939 8.11645 63.0562 8.27804 63.0562 8.27804V11.9698C63.3939 12.1314 63.5565 12.1935 63.9567 12.1935C64.7946 12.1935 65.4199 11.6963 65.4199 10.8511V9.4589H65.3574Z" fill="white"/>
<path d="M10.0547 0C15.6079 0 20.1104 4.47473 20.1104 9.99414C20.1102 15.5134 15.6078 19.9873 10.0547 19.9873C4.50173 19.9872 0.000193419 15.5133 0 9.99414C0 4.47482 4.50161 0.000148558 10.0547 0ZM9.4541 3.14453C9.17899 2.80935 8.72921 2.69788 8.2793 2.80957L7.21582 3.14453C7.05324 3.19425 6.99096 3.4184 7.10352 3.53027L10.4805 6.71289H5.36523C5.20265 6.71289 5.08984 6.82474 5.08984 6.98633V7.54492C5.08984 7.93025 5.42774 8.2666 5.81543 8.2666H6.60352V10.9639C6.60365 12.9772 7.66614 14.1454 9.4668 14.1455C10.0296 14.1455 10.4802 14.0958 11.043 13.8721V15.6621C11.043 16.1593 11.4306 16.5566 11.9434 16.5566H12.7314C12.8939 16.5564 13.0682 16.3955 13.0684 16.2217V8.24121H14.3564C14.519 8.24121 14.6318 8.12936 14.6318 7.96777C14.6195 7.94122 14.6191 7.3943 14.6191 7.38379C14.6191 6.99857 14.2821 6.66328 13.8945 6.66309H12.5439L9.4541 3.14453ZM11.0176 8.27832V12.1943C10.6801 12.3558 10.2301 12.4179 9.89258 12.418C8.99224 12.418 8.5421 11.9704 8.54199 10.9639V8.27832H11.0176Z" fill="white"/>
</g>
<defs>
<clipPath id="clip0_2658_6498">
<rect width="74.0741" height="20" fill="white"/>
</clipPath>
</defs>
</svg>
