<svg width="197" height="175" viewBox="0 0 197 175" fill="none" xmlns="http://www.w3.org/2000/svg">
<path opacity="0.5" d="M149.373 187.683L73.1557 129.416M73.1557 129.416L0.87986 62.7377M73.1557 129.416L136.566 199.498M73.1557 129.416L7.52939 56.8768M0.220448 73.6566L73.157 129.41M73.157 129.41L146.664 173.671M73.157 129.41L122.716 196.97M73.157 129.41L19.9476 56.8726L47.0619 48.149L62.1227 53.255L80.0548 63.3462L99.2581 77.6255L117.917 94.7876L134.244 113.198L146.72 131.098L154.297 146.857L146.676 173.673M73.157 129.41L37.3501 63.0667M73.157 129.41L137.567 155.401M122.65 134.397L73.1583 129.405M73.1583 129.405L47.0198 144.018M73.1583 129.405L66.3034 161.833M73.1583 129.405L58.348 75.1636M149.382 187.673L156.472 159.14L154.292 146.856L161.709 120.766L155.575 107.566L164.16 84.7622L172.481 62.6592L180.553 41.2189L188.381 20.4131L186.529 17.5202L184.071 14.644L181.219 12.0322L178.206 9.89695L175.28 8.41797L153.97 16.8594L132.03 25.5539L109.432 34.5064L86.1406 43.7328L62.1309 53.2451L37.3638 63.058L19.9613 56.8639L7.54441 56.8625L0.900496 62.7247L0.23982 73.6492L5.28273 88.524L15.3891 106.085L29.6596 125.015L73.1706 129.401L105.507 189.316L122.734 196.968L136.586 199.491L145.813 196.416L149.394 187.67L146.682 173.669L137.585 155.399L146.732 131.095L155.588 107.563L145.438 92.7268L132.122 77.5888L116.847 63.5534L101.036 51.925L86.1463 43.7341L73.491 39.6421L47.0744 48.1459L36.1056 48.2826L7.53627 56.8725M195.968 0.230818L189.726 25.3429M195.968 0.230818L189.465 23.1035M195.968 0.230818L188.366 20.4274L189.465 23.1035M189.726 25.3429L189.465 23.1035M189.726 25.3429L183.353 50.9852M137.564 155.412L122.647 134.409M122.647 134.409L103.184 112.633L81.0201 92.2231M122.647 134.409L134.236 113.208L145.418 92.7398L156.218 72.9699L166.656 53.8667L176.751 35.3934L186.516 17.5232L195.969 0.22521M81.0201 92.2231L58.3455 75.1748M81.0201 92.2231L99.2513 77.6298L116.827 63.5664L133.777 49.9986L150.138 36.9046L165.937 24.2616L181.205 12.0409L195.969 0.22521M81.0201 92.2231L73.1545 129.421M29.6503 125.031L47.0172 144.029L66.3009 161.845L86.2343 177.302M189.465 23.1035L182.794 46.5686M105.49 189.336L86.2331 177.308L73.1545 129.421M73.1545 129.421L5.26083 88.5426M73.1545 129.421L145.791 196.434M182.794 46.5686L183.348 50.9839L176.841 77.1676L170.196 103.91L163.403 131.231M182.794 46.5686L175.947 70.6542L168.919 95.3828L161.701 120.775L163.403 131.231M182.794 46.5686L180.533 41.2263L176.744 35.3977L171.734 29.5765M163.403 131.231L156.463 159.15M37.3476 63.0779L58.3386 75.1792L80.0467 63.3562L101.015 51.938L121.278 40.903L140.876 30.2306L159.837 19.9035L178.192 9.90567L195.969 0.22521M15.3672 106.103L73.1489 129.42L103.177 112.638L117.904 94.7963L132.095 77.6006L145.783 61.0218L158.985 45.0233L171.734 29.5765M171.734 29.5765L184.052 14.6514L195.958 0.222678L175.256 8.42413L172.662 7.72123L148.781 15.4063L144.756 15.618M171.734 29.5765L165.932 24.2603L159.831 19.9023L153.949 16.8724L148.786 15.4132L124.307 23.2933L99.2072 31.3692L73.4648 39.6538L64.0739 39.8753L42.1112 46.4783L36.0862 48.29M170.606 7.84691L172.66 7.72684L195.962 0.229554M170.192 103.903L168.915 95.3759L164.141 84.7696L156.212 72.9686L145.784 61.0162L133.773 49.9917L121.274 40.8961L109.412 34.5138L99.2153 31.3593L91.513 31.6198L69.3093 38.2981L64.0807 39.871M176.843 77.1564L175.949 70.643L172.47 62.6567L166.657 53.8611L158.994 45.0134L150.141 36.8934L140.879 30.2194L132.018 25.557L124.317 23.2778L118.406 23.5359M118.406 23.5359L95.8551 30.3185L91.5186 31.6211M118.406 23.5359L121.769 22.5264L144.768 15.6149L147.081 14.9226L170.619 7.84384L171.807 7.48721L195.971 0.219602" stroke="#30FF51" stroke-width="0.440917" stroke-linecap="round" strokeLinejoin="round"/>
</svg>
