<svg width="187" height="64" viewBox="0 0 187 64" fill="none" xmlns="http://www.w3.org/2000/svg">
<rect x="0.666667" y="0.666667" width="185.221" height="62.6667" rx="15.3333" stroke="white" stroke-opacity="0.1" stroke-width="1.33333"/>
<path d="M26.3465 39.1279H27.462V34.7211L29.1869 38.5611C29.3881 39.0243 29.6685 39.1889 30.217 39.1889C30.7656 39.1889 31.0338 39.0243 31.2349 38.5611L32.9599 34.7211V39.1279H34.0753V34.7272C34.0753 34.3005 33.9046 34.0933 33.5511 33.9835C32.7039 33.7215 32.137 33.947 31.8749 34.5199L30.1805 38.3112L28.5408 34.5199C28.297 33.947 27.7119 33.7215 26.8646 33.9835C26.5111 34.0933 26.3405 34.3005 26.3405 34.7272V39.1279H26.3465ZM35.014 35.5378H36.1294V37.9637C36.1172 38.0978 36.1721 38.4026 36.7816 38.4148C37.0925 38.4148 39.1892 38.4148 39.2075 38.4148V35.5256H40.3229C40.3229 35.5256 40.3229 39.4693 40.3229 39.4875C40.329 40.4628 39.1161 40.67 38.5553 40.6883H35.0323V39.9386H38.5614C39.2806 39.8594 39.1953 39.5058 39.1953 39.3839V39.0914H36.8243C35.721 39.0792 35.0201 38.5976 35.0079 38.043C35.0079 37.9942 35.0323 35.5622 35.0079 35.5378H35.014Z" fill="#00618A"/>
<path d="M41.1881 39.1309H44.3942C44.7721 39.1309 45.1317 39.0517 45.4243 38.9176C45.9058 38.6982 46.1435 38.3934 46.1435 38.0033V37.1866C46.1435 36.8635 45.8753 36.5648 45.3512 36.3637C45.0708 36.254 44.7294 36.1991 44.3942 36.1991H43.0411C42.59 36.1991 42.3767 36.065 42.3218 35.7603C42.3096 35.7237 42.3096 35.6932 42.3096 35.6628V35.1568C42.3096 35.1568 42.3096 35.102 42.3218 35.0654C42.3767 34.8338 42.4925 34.7728 42.8887 34.7363C42.9192 34.7363 42.9618 34.7302 42.9984 34.7302H46.1862V33.9866H43.0533C42.6022 33.9866 42.3645 34.017 42.1512 34.078C41.4868 34.2852 41.1942 34.6144 41.1942 35.1873V35.8395C41.1942 36.3393 41.7611 36.7721 42.718 36.8696C42.8277 36.8757 42.9313 36.8818 43.0411 36.8818H44.1992C44.2418 36.8818 44.2845 36.8818 44.315 36.8879C44.6685 36.9184 44.8209 36.9793 44.9245 37.1073C44.9915 37.1744 45.0098 37.2353 45.0098 37.3085V37.9607C45.0098 38.0399 44.955 38.1374 44.8513 38.2228C44.7538 38.3081 44.5953 38.3629 44.382 38.3812C44.3393 38.3812 44.3089 38.3873 44.2662 38.3873H41.1881V39.1309ZM53.1104 37.8388C53.1104 38.6068 53.6773 39.0334 54.8293 39.1188C54.939 39.1249 55.0426 39.1309 55.1523 39.1309H58.0597V38.3873H55.1279C54.4757 38.3873 54.2258 38.2228 54.2258 37.8266V33.9805H53.1104V37.8388ZM46.8628 37.8753V35.2239C46.8628 34.5473 47.3382 34.1389 48.2708 34.0109C48.3683 33.9988 48.4719 33.9866 48.5694 33.9866H50.6906C50.7942 33.9866 50.8978 33.9927 51.0014 34.0109C51.934 34.1389 52.4094 34.5473 52.4094 35.2239V37.8753C52.4094 38.4239 52.2083 38.7165 51.7451 38.9054L52.8422 39.8989H51.5439L50.654 39.0944L49.758 39.1492H48.5633C48.3561 39.1492 48.1428 39.1188 47.9051 39.0578C47.1919 38.8628 46.8506 38.4909 46.8506 37.8753H46.8628ZM48.0696 37.8083C48.0696 37.8449 48.0818 37.8814 48.094 37.9241C48.1611 38.2349 48.4475 38.4056 48.8864 38.4056H49.8982L48.9656 37.5645H50.2639L51.0746 38.2959C51.227 38.2167 51.3245 38.0948 51.355 37.9363C51.3672 37.8997 51.3672 37.8631 51.3672 37.8266V35.2848C51.3672 35.2848 51.3672 35.2178 51.355 35.1873C51.2879 34.9008 51.0014 34.7363 50.5687 34.7363H48.8864C48.3927 34.7363 48.0696 34.9496 48.0696 35.2909V37.8144V37.8083Z" fill="#E48E00"/>
<path d="M59.0349 32.7456C58.3461 32.7273 57.8219 32.7883 57.377 32.9772C57.249 33.0321 57.0479 33.0321 57.0235 33.1906C57.0905 33.2637 57.1027 33.3734 57.1576 33.4649C57.2673 33.6355 57.444 33.8671 57.6086 33.989C57.7854 34.1231 57.9682 34.2633 58.1572 34.3791C58.4924 34.5864 58.8703 34.7022 59.1934 34.9033C59.3823 35.0252 59.5713 35.1776 59.7602 35.3117C59.8517 35.3788 59.9126 35.4824 60.0345 35.5251V35.5068C59.9736 35.4275 59.9553 35.3178 59.9004 35.2325L59.6444 34.9765C59.3945 34.6473 59.0837 34.3609 58.7484 34.117C58.4802 33.9281 57.8829 33.666 57.7732 33.3551L57.7549 33.3369C57.9439 33.3125 58.1633 33.2454 58.34 33.2028C58.6326 33.1235 58.8947 33.1418 59.1995 33.0687L59.6079 32.9529V32.8736C59.4555 32.7151 59.3458 32.5079 59.1812 32.3677C58.7423 31.9959 58.2669 31.6241 57.7793 31.3132C57.505 31.1426 57.1698 31.0268 56.8833 30.8866C56.7858 30.8378 56.6151 30.8134 56.5541 30.7281C56.4018 30.5331 56.3225 30.2892 56.2006 30.0637C55.9568 29.5944 55.713 29.0763 55.4997 28.5826C55.3534 28.2473 55.2559 27.9121 55.073 27.6073C54.1892 26.1506 53.2322 25.2729 51.7572 24.4073C51.4402 24.2245 51.0623 24.1513 50.6661 24.0538L50.02 24.0172C49.892 23.9624 49.7519 23.8039 49.6299 23.7247C49.1423 23.4138 47.8867 22.7433 47.521 23.6271C47.2894 24.1879 47.8623 24.7304 48.0696 25.0108C48.2159 25.2119 48.3987 25.4313 48.4962 25.6569C48.5633 25.8031 48.5755 25.9494 48.6303 26.1079C48.7705 26.4858 48.8985 26.9064 49.0814 27.2599C49.1728 27.4367 49.2764 27.6256 49.3922 27.7841C49.4654 27.8816 49.5873 27.9243 49.6056 28.0767C49.4837 28.2473 49.4776 28.5094 49.4105 28.7228C49.1058 29.6858 49.2216 30.8805 49.6665 31.5875C49.8006 31.807 50.1237 32.2763 50.5625 32.0934C50.9465 31.935 50.8612 31.4473 50.9709 31.0207C50.9953 30.9231 50.9831 30.85 51.0319 30.7891V30.8073L51.3854 31.5083C51.6475 31.9289 52.1046 32.3616 52.4947 32.6603C52.6959 32.8127 52.8604 33.0809 53.1164 33.1662V33.1479H53.0981C53.0494 33.0687 52.9701 33.0382 52.9031 32.9711C52.7507 32.8188 52.58 32.6359 52.452 32.4652C52.0985 31.9837 51.7816 31.4534 51.4951 30.9049C51.361 30.6428 51.2391 30.3502 51.1233 30.0881C51.0806 29.9845 51.0806 29.8321 50.9892 29.7772C50.8612 29.9723 50.6783 30.1308 50.5808 30.3624C50.4223 30.7342 50.404 31.1852 50.3492 31.6485C50.3126 31.6607 50.3309 31.6485 50.3126 31.6668C50.0383 31.5997 49.9469 31.3193 49.8433 31.0816C49.5873 30.4721 49.5385 29.4969 49.764 28.802C49.8189 28.6191 50.0871 28.0523 49.9774 27.8877C49.9286 27.7231 49.7579 27.6256 49.6665 27.4976C49.5507 27.3391 49.4349 27.1319 49.3557 26.949C49.1484 26.4736 49.0509 25.9433 48.8315 25.4679C48.7279 25.2363 48.5511 25.0108 48.4048 24.8035C48.2402 24.578 48.0635 24.4134 47.9355 24.1391C47.8928 24.0416 47.8319 23.8892 47.8989 23.7856C47.9111 23.7247 47.9599 23.682 48.0147 23.6698C48.1305 23.5845 48.4414 23.7003 48.5633 23.749C48.8741 23.877 49.1362 24.0051 49.4044 24.1757C49.5324 24.261 49.6604 24.4256 49.8128 24.4683H49.9896C50.2639 24.5292 50.5747 24.4866 50.8307 24.5658C51.2818 24.706 51.6901 24.9193 52.0619 25.151C53.1835 25.858 54.1039 26.8698 54.7317 28.0767C54.8353 28.2717 54.8779 28.4546 54.9633 28.6618C55.14 29.0763 55.3717 29.503 55.5484 29.9113C55.7252 30.3136 55.9019 30.7281 56.1519 31.0633C56.2859 31.2401 56.7979 31.3376 57.0296 31.4351C57.1941 31.5022 57.4623 31.5753 57.6147 31.6668C57.9073 31.8435 58.1938 32.0569 58.4741 32.2519C58.6143 32.3494 59.041 32.5628 59.0593 32.7395L59.0349 32.7456Z" fill="#00618A"/>
<path fill-rule="evenodd" clip-rule="evenodd" d="M50.319 25.3125C50.1788 25.3125 50.0752 25.3308 49.9655 25.3491V25.3674H49.9837C50.0508 25.5075 50.1727 25.599 50.258 25.7209L50.4531 26.1293L50.4714 26.111C50.5933 26.0256 50.6481 25.8915 50.6481 25.6843C50.5994 25.6355 50.5933 25.5685 50.5506 25.5075C50.4957 25.4283 50.386 25.3795 50.319 25.3125Z" fill="#00618A"/>
<path fill-rule="evenodd" clip-rule="evenodd" d="M58.5781 38.3697C58.5781 38.8634 58.9682 39.1926 59.401 39.1926C59.8337 39.1926 60.2238 38.8634 60.2238 38.3697C60.2238 37.876 59.8337 37.5469 59.401 37.5469C58.9682 37.5469 58.5781 37.876 58.5781 38.3697ZM60.041 38.3697C60.041 38.7415 59.7545 39.0219 59.401 39.0219C59.0475 39.0219 58.761 38.7415 58.761 38.3697C58.761 37.9979 59.0414 37.7175 59.401 37.7175C59.7606 37.7175 60.041 37.9979 60.041 38.3697ZM59.6265 38.8391H59.8094L59.5412 38.4246C59.6875 38.4063 59.7972 38.3393 59.7972 38.1686C59.7972 37.9796 59.6753 37.9004 59.4437 37.9004H59.0779V38.8391H59.2364V38.4307H59.3827L59.6265 38.8391ZM59.2364 38.3027V38.0345H59.4193C59.5107 38.0345 59.6265 38.0528 59.6265 38.1625C59.6265 38.2966 59.5229 38.3027 59.4071 38.3027H59.2364Z" fill="#E48E00"/>
<path d="M74.9547 42V22.9333H78.1814L84.0747 37.7867L89.7814 22.9333H92.9814V42H90.6614V25.9467L84.3414 42H83.6214L77.088 25.9467V42H74.9547ZM98.8866 46.8533L101.527 40.56L96.0599 28.0533H98.4332L102.7 38.0533L106.567 28.0533H108.833L101.127 46.8533H98.8866ZM118.068 42.24C116.361 42.24 114.992 41.9644 113.961 41.4133C112.948 40.8444 112.192 40.1067 111.694 39.2C111.214 38.2756 110.912 37.2711 110.788 36.1867H113.028C113.134 36.9333 113.33 37.6267 113.614 38.2667C113.917 38.9067 114.414 39.4222 115.108 39.8133C115.801 40.1867 116.788 40.3733 118.068 40.3733C118.886 40.3733 119.623 40.2222 120.281 39.92C120.939 39.6178 121.454 39.2 121.828 38.6667C122.219 38.1156 122.414 37.4844 122.414 36.7733C122.414 36.0444 122.281 35.4489 122.014 34.9867C121.748 34.5244 121.277 34.1511 120.601 33.8667C119.943 33.5644 119.01 33.3156 117.801 33.12C116.468 32.9067 115.321 32.6133 114.361 32.24C113.419 31.8489 112.69 31.3067 112.174 30.6133C111.677 29.9022 111.428 28.9867 111.428 27.8667C111.428 26.8889 111.686 26.0089 112.201 25.2267C112.734 24.4444 113.463 23.8311 114.388 23.3867C115.312 22.9244 116.37 22.6933 117.561 22.6933C119.463 22.6933 120.983 23.1467 122.121 24.0533C123.277 24.96 123.943 26.2578 124.121 27.9467H122.041C121.81 26.7378 121.33 25.8756 120.601 25.36C119.89 24.8267 118.877 24.56 117.561 24.56C116.263 24.56 115.277 24.8533 114.601 25.44C113.926 26.0267 113.588 26.7644 113.588 27.6533C113.588 28.2756 113.694 28.8089 113.908 29.2533C114.139 29.68 114.583 30.0444 115.241 30.3467C115.899 30.6311 116.877 30.8711 118.174 31.0667C119.597 31.28 120.788 31.5911 121.748 32C122.708 32.4089 123.428 32.9778 123.908 33.7067C124.406 34.4356 124.654 35.4044 124.654 36.6133C124.654 37.68 124.37 38.64 123.801 39.4933C123.232 40.3289 122.45 40.9956 121.454 41.4933C120.459 41.9911 119.33 42.24 118.068 42.24ZM137.003 42.24C135.599 42.24 134.319 41.9911 133.163 41.4933C132.007 40.9956 131.012 40.3022 130.176 39.4133C129.341 38.5244 128.692 37.5022 128.23 36.3467C127.785 35.1733 127.563 33.92 127.563 32.5867V32.3733C127.563 31.0222 127.785 29.76 128.23 28.5867C128.692 27.4133 129.332 26.3911 130.15 25.52C130.985 24.6311 131.972 23.9378 133.11 23.44C134.265 22.9422 135.545 22.6933 136.95 22.6933C138.354 22.6933 139.625 22.9422 140.763 23.44C141.901 23.9378 142.879 24.6311 143.696 25.52C144.514 26.3911 145.145 27.4133 145.59 28.5867C146.034 29.7422 146.256 30.9867 146.256 32.32V32.5333C146.256 34.1333 145.945 35.6178 145.323 36.9867C144.701 38.3378 143.83 39.4578 142.71 40.3467L145.083 43.0133L143.67 44.3733L141.003 41.3867C140.416 41.6533 139.785 41.8578 139.11 42C138.434 42.16 137.732 42.24 137.003 42.24ZM137.003 40.32C137.945 40.32 138.816 40.16 139.616 39.84L137.483 37.44L138.896 36.08L141.35 38.8267C142.15 38.1333 142.763 37.2444 143.19 36.16C143.634 35.0756 143.856 33.8578 143.856 32.5067V32.2933C143.856 30.8711 143.581 29.5733 143.03 28.4C142.496 27.2267 141.714 26.2933 140.683 25.6C139.67 24.9067 138.425 24.56 136.95 24.56C135.474 24.56 134.212 24.8978 133.163 25.5733C132.132 26.2311 131.341 27.1467 130.79 28.32C130.239 29.4933 129.963 30.8356 129.963 32.3467V32.56C129.963 34.0889 130.274 35.44 130.896 36.6133C131.519 37.7867 132.354 38.7022 133.403 39.36C134.47 40 135.67 40.32 137.003 40.32ZM150.111 42V22.9333H152.431V40.1067H161.151V42H150.111Z" fill="white"/>
</svg>
