<svg width="181" height="64" viewBox="0 0 181 64" fill="none" xmlns="http://www.w3.org/2000/svg">
<rect x="0.666667" y="0.666667" width="179" height="62.6667" rx="15.3333" stroke="white" stroke-opacity="0.1" stroke-width="1.33333"/>
<g clip-path="url(#clip0_3048_22793)">
<path fill-rule="evenodd" clip-rule="evenodd" d="M40.2837 16C31.2787 16 23.999 23.3333 23.999 32.4057C23.999 39.6577 28.6634 45.7963 35.134 47.969C35.943 48.1323 36.2394 47.616 36.2394 47.1817C36.2394 46.8013 36.2127 45.4977 36.2127 44.1393C31.6827 45.1173 30.7394 42.1837 30.7394 42.1837C30.0114 40.2823 28.9327 39.7937 28.9327 39.7937C27.45 38.7887 29.0407 38.7887 29.0407 38.7887C30.6854 38.8973 31.5484 40.4727 31.5484 40.4727C33.004 42.9713 35.3497 42.2653 36.2934 41.8307C36.428 40.7713 36.8597 40.038 37.318 39.6307C33.705 39.2503 29.9037 37.838 29.9037 31.5363C29.9037 29.7437 30.5504 28.277 31.575 27.1363C31.4134 26.729 30.847 25.0447 31.737 22.7903C31.737 22.7903 33.112 22.3557 36.2124 24.4743C37.5397 24.1152 38.9086 23.9325 40.2837 23.931C41.6587 23.931 43.0604 24.1213 44.3547 24.4743C47.4554 22.3557 48.8304 22.7903 48.8304 22.7903C49.7204 25.0447 49.1537 26.729 48.992 27.1363C50.0437 28.277 50.6637 29.7437 50.6637 31.5363C50.6637 37.838 46.8624 39.223 43.2224 39.6307C43.8157 40.1467 44.3277 41.1243 44.3277 42.6727C44.3277 44.8727 44.301 46.6383 44.301 47.1813C44.301 47.616 44.5977 48.1323 45.4064 47.9693C51.877 45.796 56.5414 39.6577 56.5414 32.4057C56.568 23.3333 49.2617 16 40.2837 16Z" fill="white"/>
</g>
<path d="M78.0267 42.24C76.0711 42.24 74.4 41.8222 73.0133 40.9867C71.6445 40.1511 70.5956 39.0133 69.8667 37.5733C69.1556 36.1156 68.8 34.4533 68.8 32.5867V32.3733C68.8 30.9867 69.0222 29.7067 69.4667 28.5333C69.9111 27.3422 70.5422 26.3111 71.36 25.44C72.1778 24.5511 73.1467 23.8667 74.2667 23.3867C75.4045 22.8889 76.6578 22.64 78.0267 22.64C79.2889 22.64 80.4711 22.8444 81.5733 23.2533C82.6756 23.6622 83.6 24.3111 84.3467 25.2C85.1111 26.0889 85.5911 27.2533 85.7867 28.6933H83.4667C83.2 27.1644 82.5778 26.08 81.6 25.44C80.64 24.8 79.4667 24.48 78.08 24.48C76.6222 24.48 75.3778 24.8178 74.3467 25.4933C73.3333 26.1511 72.5511 27.0667 72 28.24C71.4667 29.4133 71.2 30.7822 71.2 32.3467V32.56C71.2 34.1244 71.4578 35.4933 71.9733 36.6667C72.4889 37.84 73.2533 38.7556 74.2667 39.4133C75.28 40.0533 76.5333 40.3733 78.0267 40.3733C79.4133 40.3733 80.5422 40.1067 81.4133 39.5733C82.2845 39.0222 82.9333 38.2844 83.36 37.36C83.7867 36.4356 84.0089 35.4133 84.0267 34.2933H78.4533V32.3733H86.2933V33.7867C86.2933 35.6178 85.9378 37.1644 85.2267 38.4267C84.5333 39.6889 83.5645 40.64 82.32 41.28C81.0933 41.92 79.6622 42.24 78.0267 42.24ZM91.1361 25.1467C90.7449 25.1467 90.3983 25.0044 90.0961 24.72C89.8116 24.4178 89.6694 24.0711 89.6694 23.68C89.6694 23.2711 89.8116 22.9244 90.0961 22.64C90.3983 22.3556 90.7449 22.2133 91.1361 22.2133C91.5449 22.2133 91.8916 22.3556 92.1761 22.64C92.4605 22.9244 92.6027 23.2711 92.6027 23.68C92.6027 24.0711 92.4605 24.4178 92.1761 24.72C91.8916 25.0044 91.5449 25.1467 91.1361 25.1467ZM90.0694 42V28.0533H92.2827V42H90.0694ZM101.053 42.1867C99.7907 42.1867 98.8485 41.8489 98.2263 41.1733C97.604 40.48 97.2929 39.5911 97.2929 38.5067V29.92H95.2929V28.0533H97.2929V24.88H99.5063V28.0533H102.76V29.92H99.5063V38.2933C99.5063 39.6444 100.084 40.32 101.24 40.32C101.595 40.32 101.906 40.2933 102.173 40.24C102.457 40.1867 102.715 40.1156 102.946 40.0267V41.8933C102.715 41.9644 102.457 42.0267 102.173 42.08C101.888 42.1511 101.515 42.1867 101.053 42.1867ZM106.452 42V22.9333H108.772V31.5733H118.799V22.9333H121.119V42H118.799V33.52H108.772V42H106.452ZM130.491 42.24C129.567 42.24 128.74 42.0622 128.011 41.7067C127.282 41.3333 126.705 40.7556 126.278 39.9733C125.851 39.1911 125.638 38.16 125.638 36.88V28.0533H127.851V36.7733C127.851 38 128.118 38.8978 128.651 39.4667C129.185 40.0356 129.993 40.32 131.078 40.32C131.736 40.32 132.358 40.1778 132.945 39.8933C133.531 39.6089 134.002 39.1822 134.358 38.6133C134.731 38.0444 134.918 37.3422 134.918 36.5067V28.0533H137.131V42H134.918V39.7867C134.598 40.4444 134.056 41.0222 133.291 41.52C132.545 42 131.611 42.24 130.491 42.24ZM148.538 42.24C147.4 42.24 146.431 41.9911 145.631 41.4933C144.831 40.9956 144.227 40.4 143.818 39.7067V42H141.605V21.3867H143.818V30.4C144.085 29.9378 144.458 29.5111 144.938 29.12C145.418 28.7289 145.969 28.4178 146.591 28.1867C147.213 27.9378 147.862 27.8133 148.538 27.8133C149.765 27.8133 150.849 28.0978 151.791 28.6667C152.751 29.2356 153.507 30.0444 154.058 31.0933C154.609 32.1244 154.885 33.3689 154.885 34.8267V35.04C154.885 36.4622 154.618 37.7156 154.085 38.8C153.569 39.8844 152.831 40.7289 151.871 41.3333C150.929 41.9378 149.818 42.24 148.538 42.24ZM148.325 40.4C149.711 40.4 150.769 39.9467 151.498 39.04C152.227 38.1333 152.591 36.8356 152.591 35.1467V34.9333C152.591 33.76 152.396 32.7822 152.005 32C151.613 31.2178 151.089 30.6311 150.431 30.24C149.791 29.8489 149.08 29.6533 148.298 29.6533C147 29.6533 145.916 30.0889 145.045 30.96C144.173 31.8133 143.738 33.1378 143.738 34.9333V35.1467C143.738 36.9244 144.165 38.2489 145.018 39.12C145.871 39.9733 146.973 40.4 148.325 40.4Z" fill="white"/>
<defs>
<clipPath id="clip0_3048_22793">
<rect width="32.6667" height="32" fill="white" transform="translate(24 16)"/>
</clipPath>
</defs>
</svg>
