<svg width="133" height="64" viewBox="0 0 133 64" fill="none" xmlns="http://www.w3.org/2000/svg">
<rect x="0.666667" y="0.666667" width="131.668" height="62.6667" rx="15.3333" stroke="white" stroke-opacity="0.1" stroke-width="1.33333"/>
<path d="M55.3979 30.5747L41.425 16.6035C40.6211 15.7988 39.316 15.7988 38.5111 16.6035L35.6097 19.5051L39.29 23.1854C40.1455 22.8965 41.1262 23.0902 41.8078 23.772C42.4931 24.458 42.6854 25.447 42.3892 26.3055L45.9363 29.8525C46.7945 29.5568 47.7846 29.7479 48.4698 30.4343C49.4278 31.3921 49.4278 32.9439 48.4698 33.9019C47.5117 34.8602 45.9598 34.8602 45.0011 33.9019C44.2808 33.181 44.1026 32.1226 44.4674 31.2351L41.1594 27.927L41.1591 36.6321C41.3927 36.7477 41.6131 36.9021 41.8077 37.0959C42.7654 38.0535 42.7654 39.6051 41.8077 40.5643C40.8497 41.5219 39.2971 41.5219 38.3401 40.5643C37.3822 39.6052 37.3822 38.0535 38.3401 37.0959C38.5768 36.8596 38.8507 36.6807 39.143 36.5608V27.7748C38.8506 27.6554 38.577 27.4779 38.3399 27.2397C37.6144 26.5148 37.4397 25.4499 37.8118 24.5589L34.1838 20.9304L24.6037 30.5102C23.7988 31.3155 23.7988 32.6205 24.6037 33.4253L38.5758 47.3965C39.3802 48.2012 40.6848 48.2012 41.4903 47.3965L55.3978 33.4913C56.2025 32.6862 56.2025 31.3808 55.3978 30.5759" fill="#F05133"/>
<path d="M82.6947 42.24C80.7392 42.24 79.0681 41.8222 77.6814 40.9867C76.3125 40.1511 75.2636 39.0133 74.5347 37.5733C73.8236 36.1156 73.4681 34.4533 73.4681 32.5867V32.3733C73.4681 30.9867 73.6903 29.7067 74.1347 28.5333C74.5792 27.3422 75.2103 26.3111 76.0281 25.44C76.8458 24.5511 77.8147 23.8667 78.9347 23.3867C80.0725 22.8889 81.3258 22.64 82.6947 22.64C83.9569 22.64 85.1392 22.8444 86.2414 23.2533C87.3436 23.6622 88.2681 24.3111 89.0147 25.2C89.7792 26.0889 90.2592 27.2533 90.4547 28.6933H88.1347C87.8681 27.1644 87.2458 26.08 86.2681 25.44C85.3081 24.8 84.1347 24.48 82.7481 24.48C81.2903 24.48 80.0458 24.8178 79.0147 25.4933C78.0014 26.1511 77.2192 27.0667 76.6681 28.24C76.1347 29.4133 75.8681 30.7822 75.8681 32.3467V32.56C75.8681 34.1244 76.1258 35.4933 76.6414 36.6667C77.1569 37.84 77.9214 38.7556 78.9347 39.4133C79.9481 40.0533 81.2014 40.3733 82.6947 40.3733C84.0814 40.3733 85.2103 40.1067 86.0814 39.5733C86.9525 39.0222 87.6014 38.2844 88.0281 37.36C88.4547 36.4356 88.6769 35.4133 88.6947 34.2933H83.1214V32.3733H90.9614V33.7867C90.9614 35.6178 90.6058 37.1644 89.8947 38.4267C89.2014 39.6889 88.2325 40.64 86.9881 41.28C85.7614 41.92 84.3303 42.24 82.6947 42.24ZM95.8041 25.1467C95.413 25.1467 95.0663 25.0044 94.7641 24.72C94.4797 24.4178 94.3374 24.0711 94.3374 23.68C94.3374 23.2711 94.4797 22.9244 94.7641 22.64C95.0663 22.3556 95.413 22.2133 95.8041 22.2133C96.213 22.2133 96.5597 22.3556 96.8441 22.64C97.1285 22.9244 97.2708 23.2711 97.2708 23.68C97.2708 24.0711 97.1285 24.4178 96.8441 24.72C96.5597 25.0044 96.213 25.1467 95.8041 25.1467ZM94.7374 42V28.0533H96.9508V42H94.7374ZM105.721 42.1867C104.459 42.1867 103.517 41.8489 102.894 41.1733C102.272 40.48 101.961 39.5911 101.961 38.5067V29.92H99.961V28.0533H101.961V24.88H104.174V28.0533H107.428V29.92H104.174V38.2933C104.174 39.6444 104.752 40.32 105.908 40.32C106.263 40.32 106.574 40.2933 106.841 40.24C107.125 40.1867 107.383 40.1156 107.614 40.0267V41.8933C107.383 41.9644 107.125 42.0267 106.841 42.08C106.557 42.1511 106.183 42.1867 105.721 42.1867Z" fill="white"/>
</svg>
